<svg width="30" height="65" viewBox="0 0 30 65" fill="none" xmlns="http://www.w3.org/2000/svg">
<g filter="url(#filter0_d_46_204)">
<path d="M23 34.5C23.0034 35.8199 22.6951 37.1219 22.1 38.3C21.3944 39.7117 20.3098 40.8992 18.9674 41.7293C17.6251 42.5594 16.0782 42.9994 14.5 43C13.1801 43.0034 11.8781 42.6951 10.7 42.1L5 44L6.9 38.3C6.30493 37.1219 5.99656 35.8199 6 34.5C6.00061 32.9218 6.44061 31.3748 7.27072 30.0325C8.10083 28.6902 9.28825 27.6056 10.7 26.9C11.8781 26.3049 13.1801 25.9966 14.5 26H15C17.0843 26.115 19.053 26.9948 20.5291 28.4709C22.0052 29.947 22.885 31.9157 23 34V34.5Z" stroke="#F8786F" stroke-width="2" stroke-linecap="round" stroke-linejoin="round"/>
</g>
<defs>
<filter id="filter0_d_46_204" x="-4" y="-4" width="38" height="75" filterUnits="userSpaceOnUse" color-interpolation-filters="sRGB">
<feFlood flood-opacity="0" result="BackgroundImageFix"/>
<feColorMatrix in="SourceAlpha" type="matrix" values="0 0 0 0 0 0 0 0 0 0 0 0 0 0 0 0 0 0 127 0" result="hardAlpha"/>
<feOffset dx="1" dy="1"/>
<feGaussianBlur stdDeviation="2.5"/>
<feColorMatrix type="matrix" values="0 0 0 0 0 0 0 0 0 0 0 0 0 0 0 0 0 0 0.25 0"/>
<feBlend mode="normal" in2="BackgroundImageFix" result="effect1_dropShadow_46_204"/>
<feBlend mode="normal" in="SourceGraphic" in2="effect1_dropShadow_46_204" result="shape"/>
</filter>
</defs>
</svg>
