<svg width="29" height="65" viewBox="0 0 29 65" fill="none" xmlns="http://www.w3.org/2000/svg">
<g filter="url(#filter0_d_46_212)">
<path d="M18 27H20C20.5304 27 21.0391 27.2107 21.4142 27.5858C21.7893 27.9609 22 28.4696 22 29V43C22 43.5304 21.7893 44.0391 21.4142 44.4142C21.0391 44.7893 20.5304 45 20 45H8C7.46957 45 6.96086 44.7893 6.58579 44.4142C6.21071 44.0391 6 43.5304 6 43V29C6 28.4696 6.21071 27.9609 6.58579 27.5858C6.96086 27.2107 7.46957 27 8 27H10" stroke="#F8786F" stroke-width="2" stroke-linecap="round" stroke-linejoin="round"/>
<path d="M17 25H11C10.4477 25 10 25.4477 10 26V28C10 28.5523 10.4477 29 11 29H17C17.5523 29 18 28.5523 18 28V26C18 25.4477 17.5523 25 17 25Z" stroke="#F8786F" stroke-width="2" stroke-linecap="round" stroke-linejoin="round"/>
<path d="M18 35L12.5 40.5L10 38" stroke="#F8786F" stroke-width="2" stroke-linecap="round" stroke-linejoin="round"/>
</g>
<defs>
<filter id="filter0_d_46_212" x="-4" y="-4" width="38" height="75" filterUnits="userSpaceOnUse" color-interpolation-filters="sRGB">
<feFlood flood-opacity="0" result="BackgroundImageFix"/>
<feColorMatrix in="SourceAlpha" type="matrix" values="0 0 0 0 0 0 0 0 0 0 0 0 0 0 0 0 0 0 127 0" result="hardAlpha"/>
<feOffset dx="1" dy="1"/>
<feGaussianBlur stdDeviation="2.5"/>
<feColorMatrix type="matrix" values="0 0 0 0 0 0 0 0 0 0 0 0 0 0 0 0 0 0 0.25 0"/>
<feBlend mode="normal" in2="BackgroundImageFix" result="effect1_dropShadow_46_212"/>
<feBlend mode="normal" in="SourceGraphic" in2="effect1_dropShadow_46_212" result="shape"/>
</filter>
</defs>
</svg>
