<svg width="30" height="65" viewBox="0 0 30 65" fill="none" xmlns="http://www.w3.org/2000/svg">
<g filter="url(#filter0_d_46_201)">
<path d="M20 31C20 29.4087 19.3679 27.8826 18.2426 26.7574C17.1174 25.6321 15.5913 25 14 25C12.4087 25 10.8826 25.6321 9.75736 26.7574C8.63214 27.8826 8 29.4087 8 31C8 38 5 40 5 40H23C23 40 20 38 20 31Z" stroke="#F8786F" stroke-width="2" stroke-linecap="round" stroke-linejoin="round"/>
<path d="M15.73 44C15.5542 44.3031 15.3019 44.5547 14.9982 44.7295C14.6946 44.9044 14.3504 44.9965 14 44.9965C13.6496 44.9965 13.3054 44.9044 13.0018 44.7295C12.6982 44.5547 12.4458 44.3031 12.27 44" stroke="#F8786F" stroke-width="2" stroke-linecap="round" stroke-linejoin="round"/>
</g>
<defs>
<filter id="filter0_d_46_201" x="-3" y="-4" width="38" height="75" filterUnits="userSpaceOnUse" color-interpolation-filters="sRGB">
<feFlood flood-opacity="0" result="BackgroundImageFix"/>
<feColorMatrix in="SourceAlpha" type="matrix" values="0 0 0 0 0 0 0 0 0 0 0 0 0 0 0 0 0 0 127 0" result="hardAlpha"/>
<feOffset dx="1" dy="1"/>
<feGaussianBlur stdDeviation="2.5"/>
<feColorMatrix type="matrix" values="0 0 0 0 0 0 0 0 0 0 0 0 0 0 0 0 0 0 0.25 0"/>
<feBlend mode="normal" in2="BackgroundImageFix" result="effect1_dropShadow_46_201"/>
<feBlend mode="normal" in="SourceGraphic" in2="effect1_dropShadow_46_201" result="shape"/>
</filter>
</defs>
</svg>
